<svg xmlns="http://www.w3.org/2000/svg" viewBox="0 0 1000 140" width="1000" height="140">
<defs>
    <filter id="shadow" x="-20%" y="-20%" width="140%" height="140%">
        <feGaussianBlur in="SourceAlpha" stdDeviation="3" />
        <feOffset dx="2" dy="2" result="offsetblur" />
        <feComponentTransfer>
            <feFuncA type="linear" slope="0.2"/>
        </feComponentTransfer>
        <feMerge>
            <feMergeNode />
            <feMergeNode in="SourceGraphic" />
        </feMerge>
    </filter>
</defs>
<rect x="30" y="40" width="150" height="60" rx="8" fill="#f1f5f9" stroke="#475569" stroke-width="2" filter="url(#shadow)" /><text x="105.0" y="75.0" font-family="Segoe UI, Roboto, Helvetica, Arial, sans-serif" font-size="14" fill="#2c3e50" text-anchor="middle" font-weight="600">Données</text><line x1="180" y1="70.0" x2="220" y2="70.0" stroke="#94a3b8" stroke-width="1.5" stroke-dasharray="0" /><path d="M 220 70.0 L 212.6089637399097 73.06146745892072 L 212.6089637399097 66.93853254107928 Z" fill="#94a3b8" /><rect x="220" y="40" width="150" height="60" rx="8" fill="#f1f5f9" stroke="#475569" stroke-width="2" filter="url(#shadow)" /><text x="295.0" y="75.0" font-family="Segoe UI, Roboto, Helvetica, Arial, sans-serif" font-size="14" fill="#2c3e50" text-anchor="middle" font-weight="600">Aesthetics</text><line x1="370" y1="70.0" x2="410" y2="70.0" stroke="#94a3b8" stroke-width="1.5" stroke-dasharray="0" /><path d="M 410 70.0 L 402.6089637399097 73.06146745892072 L 402.6089637399097 66.93853254107928 Z" fill="#94a3b8" /><rect x="410" y="40" width="150" height="60" rx="8" fill="#f1f5f9" stroke="#475569" stroke-width="2" filter="url(#shadow)" /><text x="485.0" y="75.0" font-family="Segoe UI, Roboto, Helvetica, Arial, sans-serif" font-size="14" fill="#2c3e50" text-anchor="middle" font-weight="600">Géométries</text><line x1="560" y1="70.0" x2="600" y2="70.0" stroke="#94a3b8" stroke-width="1.5" stroke-dasharray="0" /><path d="M 600 70.0 L 592.6089637399097 73.06146745892072 L 592.6089637399097 66.93853254107928 Z" fill="#94a3b8" /><rect x="600" y="40" width="150" height="60" rx="8" fill="#f1f5f9" stroke="#475569" stroke-width="2" filter="url(#shadow)" /><text x="675.0" y="75.0" font-family="Segoe UI, Roboto, Helvetica, Arial, sans-serif" font-size="14" fill="#2c3e50" text-anchor="middle" font-weight="600">Facettes</text><line x1="750" y1="70.0" x2="790" y2="70.0" stroke="#94a3b8" stroke-width="1.5" stroke-dasharray="0" /><path d="M 790 70.0 L 782.6089637399097 73.06146745892072 L 782.6089637399097 66.93853254107928 Z" fill="#94a3b8" /><rect x="790" y="40" width="150" height="60" rx="8" fill="#f1f5f9" stroke="#475569" stroke-width="2" filter="url(#shadow)" /><text x="865.0" y="75.0" font-family="Segoe UI, Roboto, Helvetica, Arial, sans-serif" font-size="14" fill="#2c3e50" text-anchor="middle" font-weight="600">Thèmes</text></svg>