<svg xmlns="http://www.w3.org/2000/svg" viewBox="0 0 800 600" width="800" height="600">
<defs>
    <filter id="shadow" x="-20%" y="-20%" width="140%" height="140%">
        <feGaussianBlur in="SourceAlpha" stdDeviation="3" />
        <feOffset dx="2" dy="2" result="offsetblur" />
        <feComponentTransfer>
            <feFuncA type="linear" slope="0.2"/>
        </feComponentTransfer>
        <feMerge>
            <feMergeNode />
            <feMergeNode in="SourceGraphic" />
        </feMerge>
    </filter>
</defs>
<rect x="40" y="275" width="160" height="50" rx="8" fill="#eff6ff" stroke="#3b82f6" stroke-width="2" filter="url(#shadow)" /><text x="120.0" y="305.0" font-family="Segoe UI, Roboto, Helvetica, Arial, sans-serif" font-size="14" fill="#2c3e50" text-anchor="middle" font-weight="600">Intelligence</text><line x1="200" y1="300.0" x2="280" y2="85.0" stroke="#94a3b8" stroke-width="1.5" stroke-dasharray="0" /><path d="M 280 85.0 L 280.29177068813595 92.99467759609759 L 274.55322229053166 90.85940377373318 Z" fill="#94a3b8" /><rect x="280" y="60" width="160" height="50" rx="8" fill="#fff7ed" stroke="#f97316" stroke-width="2" filter="url(#shadow)" /><text x="360.0" y="90.0" font-family="Segoe UI, Roboto, Helvetica, Arial, sans-serif" font-size="14" fill="#2c3e50" text-anchor="middle" font-weight="600">Verbale</text><line x1="440" y1="85.0" x2="520" y2="60.0" stroke="#94a3b8" stroke-width="1.5" stroke-dasharray="0" /><path d="M 520 60.0 L 513.8585630581084 65.12667068269157 L 512.0322446875174 59.28245189680036 Z" fill="#94a3b8" /><rect x="520" y="35" width="160" height="50" rx="8" fill="#f8fafc" stroke="#64748b" stroke-width="2" filter="url(#shadow)" /><text x="600.0" y="65.0" font-family="Segoe UI, Roboto, Helvetica, Arial, sans-serif" font-size="14" fill="#2c3e50" text-anchor="middle" font-weight="600">Vocabulaire</text><line x1="440" y1="85.0" x2="520" y2="120.0" stroke="#94a3b8" stroke-width="1.5" stroke-dasharray="0" /><path d="M 520 120.0 L 512.0015541005164 119.84231933208781 L 514.4557417350641 114.23274759597865 Z" fill="#94a3b8" /><rect x="520" y="95" width="160" height="50" rx="8" fill="#f8fafc" stroke="#64748b" stroke-width="2" filter="url(#shadow)" /><text x="600.0" y="125.0" font-family="Segoe UI, Roboto, Helvetica, Arial, sans-serif" font-size="14" fill="#2c3e50" text-anchor="middle" font-weight="600">Compréhension</text><line x1="200" y1="300.0" x2="280" y2="230.0" stroke="#94a3b8" stroke-width="1.5" stroke-dasharray="0" /><path d="M 280 230.0 L 276.4536687894614 237.17102049537996 L 272.42168793238375 232.56304237300554 Z" fill="#94a3b8" /><rect x="280" y="205" width="160" height="50" rx="8" fill="#fff7ed" stroke="#f97316" stroke-width="2" filter="url(#shadow)" /><text x="360.0" y="235.0" font-family="Segoe UI, Roboto, Helvetica, Arial, sans-serif" font-size="14" fill="#2c3e50" text-anchor="middle" font-weight="600">Mathématique</text><line x1="440" y1="230.0" x2="520" y2="205.0" stroke="#94a3b8" stroke-width="1.5" stroke-dasharray="0" /><path d="M 520 205.0 L 513.8585630581084 210.12667068269158 L 512.0322446875174 204.28245189680035 Z" fill="#94a3b8" /><rect x="520" y="180" width="160" height="50" rx="8" fill="#f8fafc" stroke="#64748b" stroke-width="2" filter="url(#shadow)" /><text x="600.0" y="210.0" font-family="Segoe UI, Roboto, Helvetica, Arial, sans-serif" font-size="14" fill="#2c3e50" text-anchor="middle" font-weight="600">Calcul</text><line x1="440" y1="230.0" x2="520" y2="265.0" stroke="#94a3b8" stroke-width="1.5" stroke-dasharray="0" /><path d="M 520 265.0 L 512.0015541005164 264.8423193320878 L 514.4557417350641 259.23274759597865 Z" fill="#94a3b8" /><rect x="520" y="240" width="160" height="50" rx="8" fill="#f8fafc" stroke="#64748b" stroke-width="2" filter="url(#shadow)" /><text x="600.0" y="270.0" font-family="Segoe UI, Roboto, Helvetica, Arial, sans-serif" font-size="14" fill="#2c3e50" text-anchor="middle" font-weight="600">Logique</text><line x1="200" y1="300.0" x2="280" y2="375.0" stroke="#94a3b8" stroke-width="1.5" stroke-dasharray="0" /><path d="M 280 375.0 L 272.514100561228 372.1784207272179 L 276.70182758100344 367.71151190612414 Z" fill="#94a3b8" /><rect x="280" y="350" width="160" height="50" rx="8" fill="#fff7ed" stroke="#f97316" stroke-width="2" filter="url(#shadow)" /><text x="360.0" y="380.0" font-family="Segoe UI, Roboto, Helvetica, Arial, sans-serif" font-size="14" fill="#2c3e50" text-anchor="middle" font-weight="600">Spatiale</text><line x1="440" y1="375.0" x2="520" y2="350.0" stroke="#94a3b8" stroke-width="1.5" stroke-dasharray="0" /><path d="M 520 350.0 L 513.8585630581084 355.12667068269155 L 512.0322446875174 349.28245189680035 Z" fill="#94a3b8" /><rect x="520" y="325" width="160" height="50" rx="8" fill="#f8fafc" stroke="#64748b" stroke-width="2" filter="url(#shadow)" /><text x="600.0" y="355.0" font-family="Segoe UI, Roboto, Helvetica, Arial, sans-serif" font-size="14" fill="#2c3e50" text-anchor="middle" font-weight="600">Visualisation</text><line x1="440" y1="375.0" x2="520" y2="410.0" stroke="#94a3b8" stroke-width="1.5" stroke-dasharray="0" /><path d="M 520 410.0 L 512.0015541005164 409.8423193320878 L 514.4557417350641 404.23274759597865 Z" fill="#94a3b8" /><rect x="520" y="385" width="160" height="50" rx="8" fill="#f8fafc" stroke="#64748b" stroke-width="2" filter="url(#shadow)" /><text x="600.0" y="415.0" font-family="Segoe UI, Roboto, Helvetica, Arial, sans-serif" font-size="14" fill="#2c3e50" text-anchor="middle" font-weight="600">Orientation</text><line x1="200" y1="300.0" x2="280" y2="520.0" stroke="#94a3b8" stroke-width="1.5" stroke-dasharray="0" /><path d="M 280 520.0 L 274.5970176449743 514.1001879969544 L 280.3513116132094 512.0077174630508 Z" fill="#94a3b8" /><rect x="280" y="495" width="160" height="50" rx="8" fill="#fff7ed" stroke="#f97316" stroke-width="2" filter="url(#shadow)" /><text x="360.0" y="525.0" font-family="Segoe UI, Roboto, Helvetica, Arial, sans-serif" font-size="14" fill="#2c3e50" text-anchor="middle" font-weight="600">Sociale</text><line x1="440" y1="520.0" x2="520" y2="495.0" stroke="#94a3b8" stroke-width="1.5" stroke-dasharray="0" /><path d="M 520 495.0 L 513.8585630581084 500.12667068269155 L 512.0322446875174 494.28245189680035 Z" fill="#94a3b8" /><rect x="520" y="470" width="160" height="50" rx="8" fill="#f8fafc" stroke="#64748b" stroke-width="2" filter="url(#shadow)" /><text x="600.0" y="500.0" font-family="Segoe UI, Roboto, Helvetica, Arial, sans-serif" font-size="14" fill="#2c3e50" text-anchor="middle" font-weight="600">Empathie</text><line x1="440" y1="520.0" x2="520" y2="555.0" stroke="#94a3b8" stroke-width="1.5" stroke-dasharray="0" /><path d="M 520 555.0 L 512.0015541005164 554.8423193320878 L 514.4557417350641 549.2327475959786 Z" fill="#94a3b8" /><rect x="520" y="530" width="160" height="50" rx="8" fill="#f8fafc" stroke="#64748b" stroke-width="2" filter="url(#shadow)" /><text x="600.0" y="560.0" font-family="Segoe UI, Roboto, Helvetica, Arial, sans-serif" font-size="14" fill="#2c3e50" text-anchor="middle" font-weight="600">Communication</text></svg>