<svg xmlns="http://www.w3.org/2000/svg" viewBox="0 0 1200 420" width="1200" height="420">
<defs>
    <filter id="shadow" x="-20%" y="-20%" width="140%" height="140%">
        <feGaussianBlur in="SourceAlpha" stdDeviation="3" />
        <feOffset dx="2" dy="2" result="offsetblur" />
        <feComponentTransfer>
            <feFuncA type="linear" slope="0.2"/>
        </feComponentTransfer>
        <feMerge>
            <feMergeNode />
            <feMergeNode in="SourceGraphic" />
        </feMerge>
    </filter>
</defs>
<rect x="500.0" y="30" width="200" height="60" rx="8" fill="#eff6ff" stroke="#3b82f6" stroke-width="2" filter="url(#shadow)" /><text x="600.0" y="55.0" font-family="Segoe UI, Roboto, Helvetica, Arial, sans-serif" font-size="11" fill="#2c3e50" text-anchor="middle" font-weight="600">Idéologie</text><text x="600.0" y="73.0" font-family="Segoe UI, Roboto, Helvetica, Arial, sans-serif" font-size="11" fill="#2c3e50" text-anchor="middle" font-weight="600">(Merkley, 2022)</text><line x1="600.0" y1="90" x2="280" y2="150" stroke="#94a3b8" stroke-width="1.5" /><path d="M 280 150 L 286.7002506195575 145.62888553854748 L 287.82863732577414 151.64694797170282 Z" fill="#94a3b8" /><rect x="180" y="150" width="200" height="60" rx="8" fill="#fff7ed" stroke="#f97316" stroke-width="2" filter="url(#shadow)" /><text x="280.0" y="184.0" font-family="Segoe UI, Roboto, Helvetica, Arial, sans-serif" font-size="11" fill="#2c3e50" text-anchor="middle" font-weight="600">Dimension Sociale</text><line x1="600.0" y1="90" x2="920" y2="150" stroke="#94a3b8" stroke-width="1.5" /><path d="M 920 150 L 912.1713626742259 151.64694797170282 L 913.2997493804424 145.62888553854748 Z" fill="#94a3b8" /><rect x="820" y="150" width="200" height="60" rx="8" fill="#fff7ed" stroke="#f97316" stroke-width="2" filter="url(#shadow)" /><text x="920.0" y="184.0" font-family="Segoe UI, Roboto, Helvetica, Arial, sans-serif" font-size="11" fill="#2c3e50" text-anchor="middle" font-weight="600">Dimension Économique</text><line x1="280" y1="210" x2="100" y2="320" stroke="#94a3b8" stroke-width="1.5" /><path d="M 100 320 L 104.71023473720072 313.5336495052876 L 107.9030392079952 318.7582386393149 Z" fill="#94a3b8" /><rect x="40" y="320" width="120" height="60" rx="8" fill="#f8fafc" stroke="#64748b" stroke-width="2" filter="url(#shadow)" /><text x="100.0" y="354.0" font-family="Segoe UI, Roboto, Helvetica, Arial, sans-serif" font-size="11" fill="#2c3e50" text-anchor="middle" font-weight="600">Assimilation</text><line x1="280" y1="210" x2="220" y2="320" stroke="#94a3b8" stroke-width="1.5" /><path d="M 220 320 L 220.85156473227366 312.04545177230364 L 226.22686218988957 314.9774322037305 Z" fill="#94a3b8" /><rect x="160" y="320" width="120" height="60" rx="8" fill="#f8fafc" stroke="#64748b" stroke-width="2" filter="url(#shadow)" /><text x="220.0" y="345.0" font-family="Segoe UI, Roboto, Helvetica, Arial, sans-serif" font-size="11" fill="#2c3e50" text-anchor="middle" font-weight="600">Admission</text><text x="220.0" y="363.0" font-family="Segoe UI, Roboto, Helvetica, Arial, sans-serif" font-size="11" fill="#2c3e50" text-anchor="middle" font-weight="600">Immigrants</text><line x1="280" y1="210" x2="340" y2="320" stroke="#94a3b8" stroke-width="1.5" /><path d="M 340 320 L 333.7731378101104 314.9774322037305 L 339.1484352677263 312.04545177230364 Z" fill="#94a3b8" /><rect x="280" y="320" width="120" height="60" rx="8" fill="#f8fafc" stroke="#64748b" stroke-width="2" filter="url(#shadow)" /><text x="340.0" y="354.0" font-family="Segoe UI, Roboto, Helvetica, Arial, sans-serif" font-size="11" fill="#2c3e50" text-anchor="middle" font-weight="600">Droits Égaux</text><line x1="280" y1="210" x2="460" y2="320" stroke="#94a3b8" stroke-width="1.5" /><path d="M 460 320 L 452.0969607920048 318.7582386393149 L 455.2897652627993 313.5336495052876 Z" fill="#94a3b8" /><rect x="400" y="320" width="120" height="60" rx="8" fill="#f8fafc" stroke="#64748b" stroke-width="2" filter="url(#shadow)" /><text x="460.0" y="345.0" font-family="Segoe UI, Roboto, Helvetica, Arial, sans-serif" font-size="11" fill="#2c3e50" text-anchor="middle" font-weight="600">Mariage</text><text x="460.0" y="363.0" font-family="Segoe UI, Roboto, Helvetica, Arial, sans-serif" font-size="11" fill="#2c3e50" text-anchor="middle" font-weight="600">Homosexuel</text><line x1="920" y1="210" x2="740" y2="320" stroke="#94a3b8" stroke-width="1.5" /><path d="M 740 320 L 744.7102347372007 313.5336495052876 L 747.9030392079952 318.7582386393149 Z" fill="#94a3b8" /><rect x="680" y="320" width="120" height="60" rx="8" fill="#f8fafc" stroke="#64748b" stroke-width="2" filter="url(#shadow)" /><text x="740.0" y="354.0" font-family="Segoe UI, Roboto, Helvetica, Arial, sans-serif" font-size="11" fill="#2c3e50" text-anchor="middle" font-weight="600">Niveau de Vie</text><line x1="920" y1="210" x2="860" y2="320" stroke="#94a3b8" stroke-width="1.5" /><path d="M 860 320 L 860.8515647322737 312.04545177230364 L 866.2268621898895 314.9774322037305 Z" fill="#94a3b8" /><rect x="800" y="320" width="120" height="60" rx="8" fill="#f8fafc" stroke="#64748b" stroke-width="2" filter="url(#shadow)" /><text x="860.0" y="345.0" font-family="Segoe UI, Roboto, Helvetica, Arial, sans-serif" font-size="11" fill="#2c3e50" text-anchor="middle" font-weight="600">Inégalités</text><text x="860.0" y="363.0" font-family="Segoe UI, Roboto, Helvetica, Arial, sans-serif" font-size="11" fill="#2c3e50" text-anchor="middle" font-weight="600">Revenus</text><line x1="920" y1="210" x2="980" y2="320" stroke="#94a3b8" stroke-width="1.5" /><path d="M 980 320 L 973.7731378101105 314.9774322037305 L 979.1484352677263 312.04545177230364 Z" fill="#94a3b8" /><rect x="920" y="320" width="120" height="60" rx="8" fill="#f8fafc" stroke="#64748b" stroke-width="2" filter="url(#shadow)" /><text x="980.0" y="345.0" font-family="Segoe UI, Roboto, Helvetica, Arial, sans-serif" font-size="11" fill="#2c3e50" text-anchor="middle" font-weight="600">Responsabilité</text><text x="980.0" y="363.0" font-family="Segoe UI, Roboto, Helvetica, Arial, sans-serif" font-size="11" fill="#2c3e50" text-anchor="middle" font-weight="600">Individuelle</text><line x1="920" y1="210" x2="1100" y2="320" stroke="#94a3b8" stroke-width="1.5" /><path d="M 1100 320 L 1092.096960792005 318.7582386393149 L 1095.2897652627994 313.5336495052876 Z" fill="#94a3b8" /><rect x="1040" y="320" width="120" height="60" rx="8" fill="#f8fafc" stroke="#64748b" stroke-width="2" filter="url(#shadow)" /><text x="1100.0" y="345.0" font-family="Segoe UI, Roboto, Helvetica, Arial, sans-serif" font-size="11" fill="#2c3e50" text-anchor="middle" font-weight="600">Environnement</text><text x="1100.0" y="363.0" font-family="Segoe UI, Roboto, Helvetica, Arial, sans-serif" font-size="11" fill="#2c3e50" text-anchor="middle" font-weight="600">vs Emplois</text></svg>