<svg xmlns="http://www.w3.org/2000/svg" viewBox="0 0 1200 580" width="1200" height="580">
<defs>
    <filter id="shadow" x="-20%" y="-20%" width="140%" height="140%">
        <feGaussianBlur in="SourceAlpha" stdDeviation="3" />
        <feOffset dx="2" dy="2" result="offsetblur" />
        <feComponentTransfer>
            <feFuncA type="linear" slope="0.2"/>
        </feComponentTransfer>
        <feMerge>
            <feMergeNode />
            <feMergeNode in="SourceGraphic" />
        </feMerge>
    </filter>
</defs>
<rect x="490.0" y="40" width="220" height="60" rx="8" fill="#eff6ff" stroke="#3b82f6" stroke-width="2" filter="url(#shadow)" /><text x="600.0" y="65.0" font-family="Segoe UI, Roboto, Helvetica, Arial, sans-serif" font-size="14" fill="#2c3e50" text-anchor="middle" font-weight="600">Attitude Politique</text><text x="600.0" y="85.0" font-family="Segoe UI, Roboto, Helvetica, Arial, sans-serif" font-size="14" fill="#2c3e50" text-anchor="middle" font-weight="600">Gauche!</text><line x1="600.0" y1="100" x2="250" y2="180" stroke="#94a3b8" stroke-width="1.5" stroke-dasharray="0" /><path d="M 250 180 L 256.5230436916909 175.36859621752842 L 257.8873854493694 181.33759140737206 Z" fill="#94a3b8" /><rect x="165.0" y="180" width="170" height="60" rx="8" fill="#fff7ed" stroke="#f97316" stroke-width="2" filter="url(#shadow)" /><text x="250.0" y="205.0" font-family="Segoe UI, Roboto, Helvetica, Arial, sans-serif" font-size="14" fill="#2c3e50" text-anchor="middle" font-weight="600">Opinion sur</text><text x="250.0" y="225.0" font-family="Segoe UI, Roboto, Helvetica, Arial, sans-serif" font-size="14" fill="#2c3e50" text-anchor="middle" font-weight="600">l'Immigration</text><line x1="600.0" y1="100" x2="600" y2="180" stroke="#94a3b8" stroke-width="1.5" stroke-dasharray="0" /><path d="M 600 180 L 596.9385325410793 172.6089637399097 L 603.0614674589207 172.6089637399097 Z" fill="#94a3b8" /><rect x="515.0" y="180" width="170" height="60" rx="8" fill="#fff7ed" stroke="#f97316" stroke-width="2" filter="url(#shadow)" /><text x="600.0" y="205.0" font-family="Segoe UI, Roboto, Helvetica, Arial, sans-serif" font-size="14" fill="#2c3e50" text-anchor="middle" font-weight="600">Position sur</text><text x="600.0" y="225.0" font-family="Segoe UI, Roboto, Helvetica, Arial, sans-serif" font-size="14" fill="#2c3e50" text-anchor="middle" font-weight="600">l'Économie</text><line x1="600.0" y1="100" x2="950" y2="180" stroke="#94a3b8" stroke-width="1.5" stroke-dasharray="0" /><path d="M 950 180 L 942.1126145506306 181.3375914073721 L 943.4769563083091 175.36859621752842 Z" fill="#94a3b8" /><rect x="865.0" y="180" width="170" height="60" rx="8" fill="#fff7ed" stroke="#f97316" stroke-width="2" filter="url(#shadow)" /><text x="950.0" y="205.0" font-family="Segoe UI, Roboto, Helvetica, Arial, sans-serif" font-size="14" fill="#2c3e50" text-anchor="middle" font-weight="600">Vision de</text><text x="950.0" y="225.0" font-family="Segoe UI, Roboto, Helvetica, Arial, sans-serif" font-size="14" fill="#2c3e50" text-anchor="middle" font-weight="600">l'Environnement</text><line x1="250" y1="240" x2="160" y2="320" stroke="#94a3b8" stroke-width="1.5" stroke-dasharray="0" /><path d="M 160 320 L 163.49020110205888 312.80149346967113 L 167.55805764898176 317.3778320849594 Z" fill="#94a3b8" /><rect x="75.0" y="320" width="170" height="60" rx="8" fill="#f8fafc" stroke="#64748b" stroke-width="2" filter="url(#shadow)" /><text x="160.0" y="345.0" font-family="Segoe UI, Roboto, Helvetica, Arial, sans-serif" font-size="14" fill="#2c3e50" text-anchor="middle" font-weight="600">Q1: Politique</text><text x="160.0" y="365.0" font-family="Segoe UI, Roboto, Helvetica, Arial, sans-serif" font-size="14" fill="#2c3e50" text-anchor="middle" font-weight="600">migratoire</text><line x1="250" y1="240" x2="340" y2="320" stroke="#94a3b8" stroke-width="1.5" stroke-dasharray="0" /><path d="M 340 320 L 332.44194235101827 317.3778320849594 L 336.50979889794115 312.80149346967113 Z" fill="#94a3b8" /><rect x="255.0" y="320" width="170" height="60" rx="8" fill="#f8fafc" stroke="#64748b" stroke-width="2" filter="url(#shadow)" /><text x="340.0" y="355.0" font-family="Segoe UI, Roboto, Helvetica, Arial, sans-serif" font-size="14" fill="#2c3e50" text-anchor="middle" font-weight="600">Q2: Intégration</text><line x1="600" y1="240" x2="510" y2="320" stroke="#94a3b8" stroke-width="1.5" stroke-dasharray="0" /><path d="M 510 320 L 513.4902011020589 312.80149346967113 L 517.5580576489817 317.3778320849594 Z" fill="#94a3b8" /><rect x="425.0" y="320" width="170" height="60" rx="8" fill="#f8fafc" stroke="#64748b" stroke-width="2" filter="url(#shadow)" /><text x="510.0" y="355.0" font-family="Segoe UI, Roboto, Helvetica, Arial, sans-serif" font-size="14" fill="#2c3e50" text-anchor="middle" font-weight="600">Q3: Impôts</text><line x1="600" y1="240" x2="690" y2="320" stroke="#94a3b8" stroke-width="1.5" stroke-dasharray="0" /><path d="M 690 320 L 682.4419423510183 317.3778320849594 L 686.5097988979411 312.80149346967113 Z" fill="#94a3b8" /><rect x="605.0" y="320" width="170" height="60" rx="8" fill="#f8fafc" stroke="#64748b" stroke-width="2" filter="url(#shadow)" /><text x="690.0" y="345.0" font-family="Segoe UI, Roboto, Helvetica, Arial, sans-serif" font-size="14" fill="#2c3e50" text-anchor="middle" font-weight="600">Q4: Intervention</text><text x="690.0" y="365.0" font-family="Segoe UI, Roboto, Helvetica, Arial, sans-serif" font-size="14" fill="#2c3e50" text-anchor="middle" font-weight="600">État</text><line x1="950" y1="240" x2="860" y2="320" stroke="#94a3b8" stroke-width="1.5" stroke-dasharray="0" /><path d="M 860 320 L 863.4902011020589 312.80149346967113 L 867.5580576489817 317.3778320849594 Z" fill="#94a3b8" /><rect x="775.0" y="320" width="170" height="60" rx="8" fill="#f8fafc" stroke="#64748b" stroke-width="2" filter="url(#shadow)" /><text x="860.0" y="355.0" font-family="Segoe UI, Roboto, Helvetica, Arial, sans-serif" font-size="14" fill="#2c3e50" text-anchor="middle" font-weight="600">Q5: Climat</text><line x1="950" y1="240" x2="1040" y2="320" stroke="#94a3b8" stroke-width="1.5" stroke-dasharray="0" /><path d="M 1040 320 L 1032.4419423510183 317.3778320849594 L 1036.5097988979412 312.80149346967113 Z" fill="#94a3b8" /><rect x="955.0" y="320" width="170" height="60" rx="8" fill="#f8fafc" stroke="#64748b" stroke-width="2" filter="url(#shadow)" /><text x="1040.0" y="355.0" font-family="Segoe UI, Roboto, Helvetica, Arial, sans-serif" font-size="14" fill="#2c3e50" text-anchor="middle" font-weight="600">Q6: Régulation</text><line x1="160" y1="380" x2="160" y2="460" stroke="#94a3b8" stroke-width="1.5" stroke-dasharray="0" /><path d="M 160 460 L 156.93853254107927 452.6089637399097 L 163.06146745892073 452.6089637399097 Z" fill="#94a3b8" /><rect x="75.0" y="460" width="170" height="60" rx="8" fill="#f0fdf4" stroke="#22c55e" stroke-width="2" filter="url(#shadow)" /><text x="160.0" y="495.0" font-family="Segoe UI, Roboto, Helvetica, Arial, sans-serif" font-size="14" fill="#2c3e50" text-anchor="middle" font-weight="600">Faveur + immigrants</text><line x1="340" y1="380" x2="340" y2="460" stroke="#94a3b8" stroke-width="1.5" stroke-dasharray="0" /><path d="M 340 460 L 336.93853254107927 452.6089637399097 L 343.06146745892073 452.6089637399097 Z" fill="#94a3b8" /><rect x="255.0" y="460" width="170" height="60" rx="8" fill="#f0fdf4" stroke="#22c55e" stroke-width="2" filter="url(#shadow)" /><text x="340.0" y="495.0" font-family="Segoe UI, Roboto, Helvetica, Arial, sans-serif" font-size="14" fill="#2c3e50" text-anchor="middle" font-weight="600">Faveur intégration</text><line x1="510" y1="380" x2="510" y2="460" stroke="#94a3b8" stroke-width="1.5" stroke-dasharray="0" /><path d="M 510 460 L 506.93853254107927 452.6089637399097 L 513.0614674589207 452.6089637399097 Z" fill="#94a3b8" /><rect x="425.0" y="460" width="170" height="60" rx="8" fill="#f0fdf4" stroke="#22c55e" stroke-width="2" filter="url(#shadow)" /><text x="510.0" y="495.0" font-family="Segoe UI, Roboto, Helvetica, Arial, sans-serif" font-size="14" fill="#2c3e50" text-anchor="middle" font-weight="600">Faveur augmentation</text><line x1="690" y1="380" x2="690" y2="460" stroke="#94a3b8" stroke-width="1.5" stroke-dasharray="0" /><path d="M 690 460 L 686.9385325410793 452.6089637399097 L 693.0614674589207 452.6089637399097 Z" fill="#94a3b8" /><rect x="605.0" y="460" width="170" height="60" rx="8" fill="#f0fdf4" stroke="#22c55e" stroke-width="2" filter="url(#shadow)" /><text x="690.0" y="495.0" font-family="Segoe UI, Roboto, Helvetica, Arial, sans-serif" font-size="14" fill="#2c3e50" text-anchor="middle" font-weight="600">Faveur + intervention</text><line x1="860" y1="380" x2="860" y2="460" stroke="#94a3b8" stroke-width="1.5" stroke-dasharray="0" /><path d="M 860 460 L 856.9385325410793 452.6089637399097 L 863.0614674589207 452.6089637399097 Z" fill="#94a3b8" /><rect x="775.0" y="460" width="170" height="60" rx="8" fill="#f0fdf4" stroke="#22c55e" stroke-width="2" filter="url(#shadow)" /><text x="860.0" y="495.0" font-family="Segoe UI, Roboto, Helvetica, Arial, sans-serif" font-size="14" fill="#2c3e50" text-anchor="middle" font-weight="600">Enjeu important</text><line x1="1040" y1="380" x2="1040" y2="460" stroke="#94a3b8" stroke-width="1.5" stroke-dasharray="0" /><path d="M 1040 460 L 1036.9385325410792 452.6089637399097 L 1043.0614674589208 452.6089637399097 Z" fill="#94a3b8" /><rect x="955.0" y="460" width="170" height="60" rx="8" fill="#f0fdf4" stroke="#22c55e" stroke-width="2" filter="url(#shadow)" /><text x="1040.0" y="495.0" font-family="Segoe UI, Roboto, Helvetica, Arial, sans-serif" font-size="14" fill="#2c3e50" text-anchor="middle" font-weight="600">Faveur + régulation</text></svg>