<svg xmlns="http://www.w3.org/2000/svg" viewBox="0 0 400 400">
  <!-- Background -->
  <rect width="400" height="400" fill="#1E40AF"/>
  
  <!-- Data Visualization Element (Pixelated Bar Chart) -->
  <g transform="translate(100, 100)">
    <!-- Bars -->
    <rect x="20" y="120" width="30" height="80" fill="white"/>
    <rect x="70" y="80" width="30" height="120" fill="white"/>
    <rect x="120" y="40" width="30" height="160" fill="white"/>
    <rect x="170" y="100" width="30" height="100" fill="white"/>
  </g>
  
  <!-- Pixelated Text "FAS1001" - Improved Readability -->
  <g transform="translate(85, 300)">
    <!-- F -->
    <rect x="0" y="0" width="20" height="10" fill="white"/>
    <rect x="0" y="10" width="10" height="40" fill="white"/>
    <rect x="10" y="20" width="15" height="10" fill="white"/>
    
    <!-- A - Redesigned for better visibility -->
    <rect x="35" y="0" width="10" height="50" fill="white"/>
    <rect x="55" y="0" width="10" height="50" fill="white"/>
    <rect x="35" y="0" width="30" height="10" fill="white"/>
    <rect x="35" y="20" width="30" height="10" fill="white"/>
    
    <!-- S -->
    <rect x="75" y="0" width="25" height="10" fill="white"/>
    <rect x="75" y="0" width="10" height="25" fill="white"/>
    <rect x="75" y="20" width="25" height="10" fill="white"/>
    <rect x="90" y="25" width="10" height="25" fill="white"/>
    <rect x="75" y="40" width="25" height="10" fill="white"/>
    
    <!-- 1 -->
    <rect x="115" y="0" width="15" height="50" fill="white"/>
    <rect x="110" y="0" width="10" height="10" fill="white"/>
    
    <!-- 0 -->
    <rect x="140" y="0" width="25" height="50" fill="white"/>
    <rect x="150" y="10" width="5" height="30" fill="#1E40AF"/>
    
    <!-- 0 -->
    <rect x="175" y="0" width="25" height="50" fill="white"/>
    <rect x="185" y="10" width="5" height="30" fill="#1E40AF"/>
    
    <!-- 1 -->
    <rect x="210" y="0" width="15" height="50" fill="white"/>
    <rect x="205" y="0" width="10" height="10" fill="white"/>
  </g>
</svg>
