<?xml version="1.0" encoding="utf-8"?>
<!-- Generator: Adobe Illustrator 17.0.0, SVG Export Plug-In . SVG Version: 6.00 Build 0)  -->
<!DOCTYPE svg PUBLIC "-//W3C//DTD SVG 1.1//EN" "http://www.w3.org/Graphics/SVG/1.1/DTD/svg11.dtd">
<svg version="1.1" id="Calque_1" xmlns="http://www.w3.org/2000/svg" xmlns:xlink="http://www.w3.org/1999/xlink" x="0px" y="0px"
	 width="320.66px" height="267.779px" viewBox="0 0 320.66 267.779" enable-background="new 0 0 320.66 267.779"
	 xml:space="preserve">
<g>
	<g>
		<g>
			<path d="M180.891,198.869c-0.732,1.092-1.953,1.49-3.147,1.49c-2.004,0-3.944-1.195-3.944-4.779c0-3.25,1.94-4.804,3.944-4.804
				c1.568,0,2.454,0.552,3.134,1.644l-0.822,0.719c-0.45-0.783-1.233-1.336-2.287-1.336c-2.017,0-2.877,1.837-2.877,3.777
				c0,2.004,0.848,3.751,2.852,3.751c1.079,0,1.889-0.501,2.325-1.272L180.891,198.869z"/>
			<path d="M183.552,194.938v5.331h-1.066v-10.02h1.066v3.687c0.604-0.578,1.452-0.951,2.248-0.951c1.94,0,2.543,1.426,2.543,3.379
				v3.906h-1.066v-3.918c0-1.439-0.539-2.415-1.503-2.415C184.901,193.936,184.079,194.334,183.552,194.938z"/>
			<path d="M195.848,199.665l-0.668,0.719c-0.386-0.205-0.63-0.604-0.771-0.976c-0.527,0.501-1.349,0.95-2.133,0.95
				c-1.516,0-2.595-0.591-2.595-1.85c0-1.131,0.848-2.158,2.659-2.197c0.54-0.013,1.401,0,1.927,0.026
				c0-0.449,0.013-0.797,0.013-0.848c-0.026-1.002-0.617-1.516-1.272-1.516c-0.937,0-1.966,0.347-2.736,0.848v-1.053
				c0.77-0.437,1.708-0.771,2.749-0.771c1.298,0,2.261,0.873,2.261,2.543v2.852C195.282,198.997,195.514,199.421,195.848,199.665z
				 M194.293,198.573c-0.026-0.449-0.038-0.976-0.038-1.477c-0.398-0.013-1.118-0.013-1.875,0.013
				c-1.285,0.038-1.658,0.758-1.658,1.297c0,0.809,0.617,1.066,1.606,1.066C192.944,199.472,193.702,199.087,194.293,198.573z"/>
			<path d="M197.314,191.533v-1.066h1.156v1.079h-1.131L197.314,191.533z M197.365,200.269v-7.143h1.067v7.143H197.365z"/>
			<path d="M200.436,193.126h0.873l0.193,1.696c0.296-0.604,1.054-1.824,1.85-1.824c0.424,0,0.745,0.051,1.041,0.141v0.989
				c0,0-0.437-0.115-0.874-0.115c-0.694,0-1.465,1.233-2.017,2.338v3.918h-1.066L200.436,193.126L200.436,193.126z"/>
			<path d="M206.526,196.775c0.026,1.952,0.861,2.62,2.248,2.62c1.028,0,1.837-0.231,2.492-0.604v1.066
				c-0.642,0.282-1.542,0.501-2.518,0.501c-1.939,0-3.275-1.143-3.275-3.687c0-2.312,1.387-3.674,3.07-3.674
				c1.683,0,3.006,1.272,3.006,3.289v0.488L206.526,196.775L206.526,196.775z M206.59,195.966h3.944
				c-0.064-0.989-0.937-2.03-1.991-2.03C207.464,193.936,206.782,194.848,206.59,195.966z"/>
			<path d="M221.636,193.756v-3.507h1.067v10.02h-0.874l-0.167-0.527c-0.539,0.424-1.233,0.616-1.914,0.616
				c-1.735,0-3.134-1.233-3.134-3.7c0-2.274,1.4-3.661,3.122-3.661C220.441,192.998,221.096,193.203,221.636,193.756z
				 M217.692,196.685c0,1.49,0.642,2.724,2.069,2.724c0.796,0,1.49-0.244,1.875-0.707v-3.88c-0.334-0.565-0.938-0.899-1.799-0.899
				C218.398,193.923,217.692,195.323,217.692,196.685z"/>
			<path d="M225.414,196.775c0.026,1.952,0.861,2.62,2.248,2.62c1.028,0,1.837-0.231,2.492-0.604v1.066
				c-0.642,0.282-1.542,0.501-2.518,0.501c-1.939,0-3.275-1.143-3.275-3.687c0-2.312,1.387-3.674,3.07-3.674
				c1.683,0,3.006,1.272,3.006,3.289v0.488L225.414,196.775L225.414,196.775z M225.478,195.966h3.944
				c-0.064-0.989-0.937-2.03-1.991-2.03C226.352,193.936,225.67,194.848,225.478,195.966z"/>
			<path d="M237.466,200.269c-1.002,0-1.58-0.719-1.58-1.837v-8.183h1.066v8.119c0,0.552,0.27,0.964,0.72,0.964h0.385v0.938h-0.591
				V200.269z"/>
			<path d="M240.396,196.775c0.026,1.952,0.861,2.62,2.248,2.62c1.028,0,1.837-0.231,2.492-0.604v1.066
				c-0.642,0.282-1.542,0.501-2.518,0.501c-1.939,0-3.275-1.143-3.275-3.687c0-2.312,1.387-3.674,3.07-3.674
				c1.683,0,3.006,1.272,3.006,3.289v0.488L240.396,196.775L240.396,196.775z M240.46,195.966h3.944
				c-0.064-0.989-0.937-2.03-1.991-2.03C241.334,193.936,240.653,194.848,240.46,195.966z"/>
			<path d="M252.744,199.665l-0.668,0.719c-0.386-0.205-0.63-0.604-0.771-0.976c-0.527,0.501-1.349,0.95-2.133,0.95
				c-1.516,0-2.595-0.591-2.595-1.85c0-1.131,0.848-2.158,2.659-2.197c0.54-0.013,1.401,0,1.927,0.026
				c0-0.449,0.013-0.797,0.013-0.848c-0.026-1.002-0.617-1.516-1.272-1.516c-0.937,0-1.966,0.347-2.736,0.848v-1.053
				c0.77-0.437,1.708-0.771,2.749-0.771c1.298,0,2.261,0.873,2.261,2.543v2.852C252.178,198.997,252.41,199.421,252.744,199.665z
				 M251.189,198.573c-0.026-0.449-0.038-0.976-0.038-1.477c-0.398-0.013-1.118-0.013-1.875,0.013
				c-1.285,0.038-1.658,0.758-1.658,1.297c0,0.809,0.617,1.066,1.606,1.066C249.84,199.472,250.598,199.087,251.189,198.573z"/>
			<path d="M258.847,193.756v-3.507h1.067v10.02h-0.874l-0.167-0.527c-0.539,0.424-1.233,0.616-1.914,0.616
				c-1.735,0-3.135-1.233-3.135-3.7c0-2.274,1.4-3.661,3.122-3.661C257.653,192.998,258.308,193.203,258.847,193.756z
				 M254.903,196.685c0,1.49,0.642,2.724,2.069,2.724c0.796,0,1.49-0.244,1.875-0.707v-3.88c-0.334-0.565-0.938-0.899-1.799-0.899
				C255.61,193.923,254.903,195.323,254.903,196.685z"/>
			<path d="M262.625,196.775c0.026,1.952,0.861,2.62,2.248,2.62c1.028,0,1.837-0.231,2.492-0.604v1.066
				c-0.642,0.282-1.542,0.501-2.518,0.501c-1.939,0-3.275-1.143-3.275-3.687c0-2.312,1.387-3.674,3.07-3.674
				s3.006,1.272,3.006,3.289v0.488L262.625,196.775L262.625,196.775z M262.689,195.966h3.944c-0.064-0.989-0.937-2.03-1.991-2.03
				C263.563,193.936,262.881,194.848,262.689,195.966z"/>
			<path d="M269.217,193.126h0.873l0.193,1.696c0.296-0.604,1.054-1.824,1.85-1.824c0.424,0,0.745,0.051,1.041,0.141v0.989
				c0,0-0.437-0.115-0.874-0.115c-0.694,0-1.465,1.233-2.017,2.338v3.918h-1.066L269.217,193.126L269.217,193.126z"/>
			<path d="M274.189,198.612c0.539,0.462,1.735,0.809,2.621,0.809c1.143,0,1.966-0.437,1.966-1.246c0-0.694-0.642-1.131-1.85-1.131
				c-1.786,0-2.698-0.63-2.698-1.94c0-1.208,1.015-2.145,2.66-2.145c0.835,0,1.837,0.206,2.389,0.488v1.066
				c-0.578-0.398-1.657-0.642-2.403-0.642c-1.002,0-1.631,0.488-1.631,1.182c0,0.591,0.334,1.079,1.888,1.079
				c1.683,0,2.672,0.732,2.672,2.029c0,1.375-1.195,2.197-2.98,2.197c-0.899,0-2.017-0.257-2.634-0.604L274.189,198.612
				L274.189,198.612z"/>
			<path d="M282.463,194.938v5.331h-1.066v-10.02h1.066v3.687c0.604-0.578,1.452-0.951,2.248-0.951c1.94,0,2.543,1.426,2.543,3.379
				v3.906h-1.066v-3.918c0-1.439-0.539-2.415-1.503-2.415C283.812,193.936,282.99,194.334,282.463,194.938z"/>
			<path d="M289.042,191.533v-1.066h1.156v1.079h-1.131L289.042,191.533z M289.093,200.269v-7.143h1.067v7.143H289.093z"/>
			<path d="M298.215,196.659c0,2.467-1.4,3.7-3.134,3.7c-0.642,0-1.284-0.167-1.811-0.527v3.263h-1.066v-9.969h0.873l0.167,0.565
				c0.527-0.501,1.156-0.694,1.85-0.694C296.815,192.998,298.215,194.385,298.215,196.659z M293.269,194.706v4.085
				c0.386,0.411,1.041,0.617,1.799,0.617c1.426,0,2.069-1.233,2.069-2.724c0-1.362-0.706-2.762-2.145-2.762
				C294.181,193.923,293.603,194.218,293.269,194.706z"/>
			<path d="M174.739,212.02c0.026,1.924,0.848,2.582,2.215,2.582c1.013,0,1.811-0.228,2.456-0.595v1.051
				c-0.633,0.279-1.519,0.494-2.481,0.494c-1.912,0-3.228-1.126-3.228-3.633c0-2.279,1.366-3.62,3.025-3.62
				c1.658,0,2.962,1.253,2.962,3.24v0.481L174.739,212.02L174.739,212.02z M174.802,211.222h3.886c-0.063-0.975-0.924-2-1.962-2
				C175.663,209.222,174.992,210.121,174.802,211.222z"/>
			<path d="M182.095,209.235c0.608-0.582,1.43-0.949,2.228-0.949c1.912,0,2.506,1.405,2.506,3.329v3.848h-1.05v-3.861
				c0-1.418-0.532-2.379-1.481-2.379c-0.861,0-1.671,0.392-2.19,0.987v5.253h-1.05v-7.038h0.911L182.095,209.235z"/>
			<path d="M192.68,212.02c0.026,1.924,0.848,2.582,2.215,2.582c1.013,0,1.811-0.228,2.456-0.595v1.051
				c-0.633,0.279-1.519,0.494-2.481,0.494c-1.912,0-3.228-1.126-3.228-3.633c0-2.279,1.367-3.62,3.025-3.62
				c1.658,0,2.962,1.253,2.962,3.24v0.481L192.68,212.02L192.68,212.02z M192.744,211.222h3.886c-0.063-0.975-0.924-2-1.962-2
				C193.604,209.222,192.933,210.121,192.744,211.222z"/>
			<path d="M200.037,209.235c0.608-0.582,1.43-0.949,2.228-0.949c1.912,0,2.506,1.405,2.506,3.329v3.848h-1.05v-3.861
				c0-1.418-0.532-2.379-1.481-2.379c-0.861,0-1.671,0.392-2.19,0.987v5.253H199v-7.038h0.911L200.037,209.235z"/>
			<path d="M205.912,213.829c0.532,0.456,1.709,0.798,2.582,0.798c1.127,0,1.937-0.43,1.937-1.228c0-0.684-0.633-1.114-1.823-1.114
				c-1.759,0-2.658-0.62-2.658-1.911c0-1.19,1-2.114,2.62-2.114c0.823,0,1.81,0.203,2.354,0.481v1.051
				c-0.569-0.392-1.633-0.633-2.367-0.633c-0.987,0-1.607,0.481-1.607,1.164c0,0.582,0.329,1.063,1.861,1.063
				c1.658,0,2.633,0.721,2.633,2c0,1.354-1.177,2.164-2.937,2.164c-0.886,0-1.987-0.253-2.595-0.595L205.912,213.829
				L205.912,213.829z"/>
			<path d="M213.496,212.02c0.026,1.924,0.848,2.582,2.215,2.582c1.013,0,1.811-0.228,2.456-0.595v1.051
				c-0.633,0.279-1.519,0.494-2.481,0.494c-1.912,0-3.228-1.126-3.228-3.633c0-2.279,1.367-3.62,3.025-3.62
				c1.658,0,2.962,1.253,2.962,3.24v0.481L213.496,212.02L213.496,212.02z M213.559,211.222h3.886c-0.063-0.975-0.924-2-1.962-2
				C214.419,209.222,213.749,210.121,213.559,211.222z"/>
			<path d="M219.852,206.855v-1.051h1.139v1.063h-1.114L219.852,206.855z M219.902,215.462v-7.038h1.051v7.038H219.902z"/>
			<path d="M226.714,208.615c0.126-0.355,0.405-0.899,0.949-0.899c0.62,0,1.215,0.215,1.215,0.215v0.747
				c0,0-0.861-0.253-1.152-0.165c-0.165,0.05-0.317,0.316-0.418,0.544c0.443,0.468,0.645,1.063,0.645,1.595
				c0,1.241-0.772,2.329-2.633,2.329c-0.493,0-0.898-0.076-1.24-0.203c-0.317,0.215-0.57,0.392-0.57,0.696
				c0,0.354,0.392,0.62,0.797,0.684c0.671,0.101,1.759,0.101,2.608,0.203c0.835,0.101,1.784,0.62,1.784,1.797
				c0,1.38-1.607,2.126-3.316,2.126c-2,0-3.164-0.785-3.164-1.86c0-0.772,0.393-1.304,1.101-1.684
				c-0.405-0.266-0.696-0.633-0.696-1.19c0-0.494,0.405-0.861,0.81-1.152c-0.493-0.443-0.721-1.063-0.721-1.747
				c0-1.038,0.76-2.354,2.607-2.354C225.878,208.298,226.346,208.425,226.714,208.615z M224.094,215.007
				c-0.633,0.379-0.949,0.696-0.949,1.278c0,0.721,0.861,1.063,2.189,1.063c1.33,0,2.393-0.418,2.393-1.202
				c0-0.544-0.455-0.886-1.076-0.949c-0.696-0.076-1.709-0.101-2.405-0.177C224.194,215.019,224.144,215.019,224.094,215.007z
				 M227.017,210.652c0-0.759-0.532-1.519-1.696-1.519s-1.683,0.759-1.683,1.519c0,0.785,0.544,1.519,1.683,1.519
				C226.485,212.172,227.017,211.437,227.017,210.652z"/>
			<path d="M231.019,209.235c0.608-0.582,1.43-0.949,2.228-0.949c1.912,0,2.506,1.405,2.506,3.329v3.848h-1.05v-3.861
				c0-1.418-0.532-2.379-1.481-2.379c-0.861,0-1.671,0.392-2.19,0.987v5.253h-1.05v-7.038h0.911L231.019,209.235z"/>
			<path d="M237.996,212.02c0.026,1.924,0.848,2.582,2.215,2.582c1.013,0,1.811-0.228,2.456-0.595v1.051
				c-0.633,0.279-1.519,0.494-2.481,0.494c-1.912,0-3.228-1.126-3.228-3.633c0-2.279,1.366-3.62,3.025-3.62
				c1.658,0,2.962,1.253,2.962,3.24v0.481L237.996,212.02L237.996,212.02z M238.059,211.222h3.886c-0.063-0.975-0.924-2-1.962-2
				C238.92,209.222,238.249,210.121,238.059,211.222z"/>
			<path d="M245.365,210.21v5.253h-1.05v-7.038h0.911l0.126,0.81c0.608-0.582,1.43-0.949,2.228-0.949
				c1.025,0,1.671,0.405,2.051,1.076c0.608-0.646,1.494-1.076,2.341-1.076c1.912,0,2.506,1.405,2.506,3.329v3.848h-1.051v-3.861
				c0-1.418-0.532-2.379-1.481-2.379c-0.785,0-1.519,0.317-2.037,0.823c0.126,0.456,0.177,0.987,0.177,1.57v3.848h-1.05v-3.861
				c0-1.418-0.532-2.379-1.481-2.379C246.694,209.222,245.884,209.614,245.365,210.21z"/>
			<path d="M256.722,212.02c0.026,1.924,0.848,2.582,2.215,2.582c1.013,0,1.811-0.228,2.456-0.595v1.051
				c-0.633,0.279-1.519,0.494-2.481,0.494c-1.912,0-3.228-1.126-3.228-3.633c0-2.279,1.366-3.62,3.025-3.62
				c1.658,0,2.962,1.253,2.962,3.24v0.481L256.722,212.02L256.722,212.02z M256.785,211.222h3.886c-0.063-0.975-0.924-2-1.962-2
				C257.646,209.222,256.975,210.121,256.785,211.222z"/>
			<path d="M264.078,209.235c0.608-0.582,1.43-0.949,2.228-0.949c1.912,0,2.506,1.405,2.506,3.329v3.848h-1.05v-3.861
				c0-1.418-0.532-2.379-1.481-2.379c-0.861,0-1.671,0.392-2.19,0.987v5.253h-1.05v-7.038h0.911L264.078,209.235z"/>
			<path d="M274.232,215.386c-0.24,0.051-0.721,0.165-1.367,0.165c-1.354,0-2.05-0.785-2.05-2.24v-3.962h-0.76v-0.924h0.76v-1.823
				h1.05v1.823h1.962v0.924h-1.962v3.873c0,0.975,0.443,1.392,1.089,1.392c0.544,0,0.975-0.088,1.278-0.203V215.386z"/>
			<path d="M283.728,209.045v-3.456h1.051v9.873h-0.861l-0.164-0.519c-0.532,0.418-1.215,0.608-1.886,0.608
				c-1.709,0-3.088-1.215-3.088-3.645c0-2.24,1.379-3.607,3.076-3.607C282.551,208.298,283.196,208.501,283.728,209.045z
				 M279.842,211.931c0,1.468,0.632,2.683,2.038,2.683c0.785,0,1.468-0.241,1.848-0.696v-3.823
				c-0.329-0.557-0.924-0.886-1.772-0.886C280.538,209.209,279.842,210.589,279.842,211.931z"/>
			<path d="M287.274,212.02c0.026,1.924,0.848,2.582,2.215,2.582c1.013,0,1.811-0.228,2.456-0.595v1.051
				c-0.633,0.279-1.519,0.494-2.481,0.494c-1.912,0-3.228-1.126-3.228-3.633c0-2.279,1.367-3.62,3.025-3.62s2.962,1.253,2.962,3.24
				v0.481L287.274,212.02L287.274,212.02z M287.338,211.222h3.886c-0.063-0.975-0.924-2-1.962-2
				C288.199,209.222,287.527,210.121,287.338,211.222z"/>
			<path d="M293.187,213.829c0.532,0.456,1.708,0.798,2.582,0.798c1.127,0,1.937-0.43,1.937-1.228c0-0.684-0.633-1.114-1.823-1.114
				c-1.759,0-2.658-0.62-2.658-1.911c0-1.19,1-2.114,2.62-2.114c0.823,0,1.81,0.203,2.354,0.481v1.051
				c-0.569-0.392-1.633-0.633-2.367-0.633c-0.987,0-1.607,0.481-1.607,1.164c0,0.582,0.329,1.063,1.861,1.063
				c1.658,0,2.633,0.721,2.633,2c0,1.354-1.177,2.164-2.937,2.164c-0.886,0-1.988-0.253-2.594-0.595v-1.126H293.187z"/>
			<path d="M173.645,229.224c0.539,0.462,1.735,0.809,2.621,0.809c1.143,0,1.966-0.437,1.966-1.246c0-0.694-0.642-1.131-1.85-1.131
				c-1.786,0-2.698-0.63-2.698-1.94c0-1.208,1.015-2.145,2.66-2.145c0.835,0,1.837,0.206,2.389,0.488v1.066
				c-0.578-0.398-1.657-0.642-2.403-0.642c-1.002,0-1.631,0.488-1.631,1.182c0,0.591,0.334,1.079,1.888,1.079
				c1.683,0,2.672,0.732,2.672,2.029c0,1.375-1.195,2.197-2.98,2.197c-0.899,0-2.017-0.257-2.633-0.604v-1.142H173.645z"/>
			<path d="M186.031,230.059c-0.565,0.63-1.541,0.912-2.467,0.912c-2.145,0-3.211-1.362-3.211-3.687
				c0-2.235,1.464-3.674,3.211-3.674c0.925,0,1.824,0.385,2.415,1.053l-0.771,0.707c-0.321-0.398-0.886-0.797-1.619-0.797
				c-1.349,0-2.171,1.131-2.171,2.698c0,1.632,0.809,2.762,2.145,2.762c0.745,0,1.413-0.321,1.722-0.719L186.031,230.059z"/>
			<path d="M187.484,222.146v-1.066h1.156v1.079h-1.131L187.484,222.146z M187.535,230.881v-7.143h1.067v7.143H187.535z"/>
			<path d="M191.197,227.387c0.026,1.952,0.861,2.62,2.248,2.62c1.028,0,1.837-0.231,2.492-0.604v1.066
				c-0.642,0.282-1.542,0.501-2.518,0.501c-1.939,0-3.275-1.143-3.275-3.687c0-2.312,1.387-3.674,3.07-3.674
				c1.683,0,3.006,1.272,3.006,3.289v0.488L191.197,227.387L191.197,227.387z M191.261,226.578h3.944
				c-0.064-0.989-0.937-2.03-1.991-2.03C192.135,224.548,191.453,225.46,191.261,226.578z"/>
			<path d="M198.726,224.561c0.617-0.591,1.452-0.964,2.261-0.964c1.94,0,2.543,1.426,2.543,3.379v3.906h-1.066v-3.918
				c0-1.439-0.54-2.415-1.503-2.415c-0.874,0-1.696,0.398-2.223,1.002v5.331h-1.066v-7.143h0.924L198.726,224.561z"/>
			<path d="M210.495,230.059c-0.565,0.63-1.541,0.912-2.467,0.912c-2.145,0-3.211-1.362-3.211-3.687
				c0-2.235,1.464-3.674,3.211-3.674c0.925,0,1.824,0.385,2.415,1.053l-0.771,0.707c-0.321-0.398-0.886-0.797-1.619-0.797
				c-1.349,0-2.171,1.131-2.171,2.698c0,1.632,0.809,2.762,2.145,2.762c0.745,0,1.413-0.321,1.722-0.719L210.495,230.059z"/>
			<path d="M212.617,227.387c0.026,1.952,0.861,2.62,2.248,2.62c1.028,0,1.837-0.231,2.492-0.604v1.066
				c-0.642,0.282-1.542,0.501-2.518,0.501c-1.939,0-3.275-1.143-3.275-3.687c0-2.312,1.387-3.674,3.07-3.674
				c1.683,0,3.006,1.272,3.006,3.289v0.488L212.617,227.387L212.617,227.387z M212.68,226.578h3.944
				c-0.064-0.989-0.937-2.03-1.991-2.03C213.555,224.548,212.873,225.46,212.68,226.578z"/>
			<path d="M218.682,229.224c0.539,0.462,1.735,0.809,2.621,0.809c1.143,0,1.966-0.437,1.966-1.246c0-0.694-0.642-1.131-1.85-1.131
				c-1.786,0-2.698-0.63-2.698-1.94c0-1.208,1.015-2.145,2.66-2.145c0.835,0,1.837,0.206,2.389,0.488v1.066
				c-0.578-0.398-1.657-0.642-2.403-0.642c-1.002,0-1.631,0.488-1.631,1.182c0,0.591,0.334,1.079,1.888,1.079
				c1.683,0,2.672,0.732,2.672,2.029c0,1.375-1.195,2.197-2.98,2.197c-0.899,0-2.017-0.257-2.634-0.604L218.682,229.224
				L218.682,229.224z"/>
			<path d="M229.051,229.224c0.539,0.462,1.735,0.809,2.621,0.809c1.143,0,1.966-0.437,1.966-1.246c0-0.694-0.642-1.131-1.85-1.131
				c-1.786,0-2.698-0.63-2.698-1.94c0-1.208,1.015-2.145,2.66-2.145c0.835,0,1.837,0.206,2.389,0.488v1.066
				c-0.578-0.398-1.657-0.642-2.403-0.642c-1.002,0-1.631,0.488-1.631,1.182c0,0.591,0.334,1.079,1.888,1.079
				c1.683,0,2.672,0.732,2.672,2.029c0,1.375-1.195,2.197-2.98,2.197c-0.899,0-2.017-0.257-2.634-0.604L229.051,229.224
				L229.051,229.224z"/>
			<path d="M241.937,227.323c0,2.441-1.413,3.648-3.096,3.648c-1.67,0-3.083-1.208-3.083-3.648c0-2.312,1.4-3.713,3.083-3.713
				S241.937,225.01,241.937,227.323z M240.858,227.323c0-1.387-0.694-2.762-2.005-2.762c-1.323,0-2.017,1.336-2.017,2.749
				c0,1.439,0.694,2.736,2.004,2.736C240.151,230.046,240.858,228.8,240.858,227.323z"/>
			<path d="M248.773,230.059c-0.565,0.63-1.541,0.912-2.467,0.912c-2.145,0-3.211-1.362-3.211-3.687
				c0-2.235,1.464-3.674,3.211-3.674c0.925,0,1.824,0.385,2.415,1.053l-0.771,0.707c-0.321-0.398-0.886-0.797-1.619-0.797
				c-1.349,0-2.171,1.131-2.171,2.698c0,1.632,0.809,2.762,2.145,2.762c0.745,0,1.413-0.321,1.722-0.719L248.773,230.059z"/>
			<path d="M250.226,222.146v-1.066h1.156v1.079h-1.131L250.226,222.146z M250.277,230.881v-7.143h1.067v7.143H250.277z"/>
			<path d="M258.988,230.278l-0.668,0.719c-0.386-0.205-0.63-0.604-0.771-0.976c-0.527,0.501-1.349,0.95-2.133,0.95
				c-1.516,0-2.595-0.591-2.595-1.85c0-1.131,0.848-2.158,2.659-2.197c0.54-0.013,1.401,0,1.927,0.026
				c0-0.449,0.013-0.797,0.013-0.848c-0.026-1.002-0.617-1.516-1.272-1.516c-0.937,0-1.966,0.347-2.736,0.848v-1.053
				c0.77-0.437,1.708-0.771,2.749-0.771c1.298,0,2.261,0.873,2.261,2.543v2.852C258.422,229.61,258.654,230.033,258.988,230.278z
				 M257.433,229.185c-0.026-0.449-0.038-0.976-0.038-1.477c-0.398-0.013-1.118-0.013-1.875,0.013
				c-1.285,0.038-1.658,0.758-1.658,1.297c0,0.809,0.617,1.066,1.606,1.066C256.084,230.085,256.843,229.699,257.433,229.185z"/>
			<path d="M261.918,230.881c-1.002,0-1.58-0.719-1.58-1.837v-8.183h1.066v8.119c0,0.552,0.27,0.964,0.72,0.964h0.385v0.938h-0.591
				V230.881z"/>
			<path d="M264.732,227.387c0.026,1.952,0.861,2.62,2.248,2.62c1.028,0,1.837-0.231,2.492-0.604v1.066
				c-0.642,0.282-1.542,0.501-2.518,0.501c-1.939,0-3.275-1.143-3.275-3.687c0-2.312,1.387-3.674,3.07-3.674
				s3.006,1.272,3.006,3.289v0.488L264.732,227.387L264.732,227.387z M264.796,226.578h3.944c-0.064-0.989-0.937-2.03-1.991-2.03
				C265.67,224.548,264.989,225.46,264.796,226.578z"/>
			<path d="M270.797,229.224c0.539,0.462,1.735,0.809,2.621,0.809c1.143,0,1.966-0.437,1.966-1.246c0-0.694-0.642-1.131-1.85-1.131
				c-1.786,0-2.698-0.63-2.698-1.94c0-1.208,1.015-2.145,2.66-2.145c0.835,0,1.837,0.206,2.389,0.488v1.066
				c-0.578-0.398-1.657-0.642-2.403-0.642c-1.002,0-1.631,0.488-1.631,1.182c0,0.591,0.334,1.079,1.888,1.079
				c1.683,0,2.672,0.732,2.672,2.029c0,1.375-1.195,2.197-2.98,2.197c-0.899,0-2.017-0.257-2.634-0.604L270.797,229.224
				L270.797,229.224z"/>
			<path d="M175.11,239.98c0.617-0.591,1.452-0.964,2.261-0.964c1.94,0,2.543,1.426,2.543,3.379v3.905h-1.066v-3.918
				c0-1.439-0.54-2.415-1.503-2.415c-0.874,0-1.696,0.398-2.223,1.002v5.331h-1.066v-7.143h0.924L175.11,239.98z"/>
			<path d="M186.121,245.44c-0.616,0.591-1.451,0.95-2.248,0.95c-1.94,0-2.544-1.426-2.544-3.379v-3.854h1.067v3.867
				c0,1.439,0.539,2.415,1.503,2.415c0.873,0,1.683-0.385,2.222-0.99v-5.293h1.067v7.143h-0.925L186.121,245.44z"/>
			<path d="M189.886,240.969v5.331h-1.066v-7.143h0.924l0.129,0.822c0.617-0.591,1.452-0.964,2.261-0.964
				c1.04,0,1.696,0.411,2.081,1.092c0.617-0.655,1.516-1.092,2.377-1.092c1.94,0,2.543,1.426,2.543,3.379v3.905h-1.066v-3.918
				c0-1.439-0.539-2.415-1.503-2.415c-0.797,0-1.542,0.321-2.069,0.835c0.129,0.463,0.18,1.002,0.18,1.593v3.905h-1.066v-3.918
				c0-1.439-0.54-2.415-1.503-2.415C191.235,239.967,190.413,240.365,189.886,240.969z"/>
			<path d="M201.476,242.806c0.026,1.953,0.835,2.621,2.222,2.621c1.028,0,1.825-0.231,2.48-0.604v1.066
				c-0.642,0.282-1.529,0.501-2.506,0.501c-1.94,0-3.25-1.143-3.25-3.687c0-2.312,1.362-3.674,3.044-3.674
				c1.683,0,2.993,1.272,2.993,3.289v0.488L201.476,242.806L201.476,242.806z M201.54,241.997h3.905
				c-0.064-0.989-0.925-2.03-1.978-2.03C202.388,239.967,201.733,240.879,201.54,241.997z M204.495,235.818l-1.246,1.747h-0.9
				l1.002-1.747H204.495z"/>
			<path d="M207.914,239.158h0.873l0.193,1.696c0.296-0.604,1.054-1.824,1.85-1.824c0.424,0,0.745,0.051,1.041,0.141v0.989
				c0,0-0.437-0.115-0.874-0.115c-0.694,0-1.465,1.233-2.017,2.338v3.918h-1.066L207.914,239.158L207.914,239.158z"/>
			<path d="M213.22,237.565v-1.066h1.156v1.079h-1.131L213.22,237.565z M213.271,246.3v-7.143h1.067v7.143H213.271z"/>
			<path d="M220.838,239.723l0.18-0.565h0.873v9.969h-1.066v-3.263c-0.527,0.36-1.17,0.527-1.811,0.527
				c-1.735,0-3.134-1.233-3.134-3.7c0-2.274,1.4-3.661,3.122-3.661C219.682,239.029,220.324,239.222,220.838,239.723z
				 M216.958,242.716c0,1.49,0.642,2.724,2.069,2.724c0.745,0,1.4-0.206,1.799-0.617v-4.085c-0.347-0.488-0.925-0.783-1.722-0.783
				C217.665,239.954,216.958,241.354,216.958,242.716z"/>
			<path d="M228.316,245.44c-0.616,0.591-1.451,0.95-2.248,0.95c-1.94,0-2.544-1.426-2.544-3.379v-3.854h1.067v3.867
				c0,1.439,0.539,2.415,1.503,2.415c0.873,0,1.683-0.385,2.222-0.99v-5.293h1.067v7.143h-0.925L228.316,245.44z"/>
			<path d="M231.722,242.806c0.026,1.953,0.861,2.621,2.248,2.621c1.028,0,1.837-0.231,2.492-0.604v1.066
				c-0.642,0.282-1.542,0.501-2.518,0.501c-1.939,0-3.275-1.143-3.275-3.687c0-2.312,1.387-3.674,3.07-3.674
				c1.683,0,3.006,1.272,3.006,3.289v0.488L231.722,242.806L231.722,242.806z M231.786,241.997h3.944
				c-0.064-0.989-0.937-2.03-1.991-2.03C232.66,239.967,231.978,240.879,231.786,241.997z"/>
			<path d="M237.787,244.643c0.539,0.462,1.735,0.809,2.621,0.809c1.143,0,1.966-0.437,1.966-1.246c0-0.694-0.642-1.131-1.85-1.131
				c-1.786,0-2.698-0.63-2.698-1.94c0-1.207,1.015-2.145,2.66-2.145c0.835,0,1.837,0.206,2.389,0.488v1.066
				c-0.578-0.398-1.657-0.642-2.403-0.642c-1.002,0-1.631,0.488-1.631,1.182c0,0.591,0.334,1.079,1.888,1.079
				c1.683,0,2.672,0.732,2.672,2.029c0,1.375-1.195,2.197-2.98,2.197c-0.899,0-2.017-0.257-2.633-0.604v-1.142H237.787z"/>
		</g>
		<g>
			<path d="M276.172,20.478c-0.003-1.76-2.731-1.76-2.729,0c0.04,27.867,0.081,55.734,0.121,83.601
				c-23.325-25.851-46.649-51.703-69.973-77.554c-2.093-2.32-4.186-4.64-6.28-6.96c-0.81-0.898-2.336-0.184-2.329,0.965
				c0.122,19.746,0.244,39.493,0.366,59.239c-11.307-10.726-29.592-9.787-39.542,2.623c-9.552,11.913-6.092,28.688,5.448,37.721
				c7.463,5.842,14.925,11.683,22.388,17.525c0.706,0.553,1.384,1.12,2.035,1.703c-6.734,3.704-13.468,7.409-20.203,11.113
				c-14.32,7.877-28.639,15.754-42.959,23.631c-1.12-2.315-1.874-4.853-2.186-7.668c-1.007-9.097,3.83-17.8,11.44-22.563
				c9.908-6.201,22.839-3.513,30.456,4.929c1.181,1.309,3.105-0.627,1.93-1.93c-11.123-12.328-30.644-11.882-41.048,1.093
				c-6.57,8.193-6.984,18.687-2.848,27.379c-15.439,8.492-30.877,16.985-46.316,25.477c-9.176-4.584-17.577-10.661-24.783-18.086
				c5.062-14.643,10.123-29.287,15.185-43.93C76.033,104.973,87.721,71.159,99.41,37.344c7.668-1.383,15.525-1.855,23.36-1.37
				c1.758,0.109,1.748-2.62,0-2.729c-7.536-0.467-15.03-0.06-22.342,1.151c0.85-2.46,1.701-4.92,2.551-7.38
				c0.699-2.023,1.398-4.046,2.098-6.068c0.576-1.668-2.06-2.378-2.631-0.725c-1.698,4.911-3.395,9.822-5.093,14.734
				C74.062,39.58,52.88,52.523,38.587,72.23c-18.74,25.839-21.389,60.523-7.722,89.194c3.927,8.238,9.077,15.628,15.139,22.086
				c-4.015,11.614-8.029,23.229-12.044,34.843c-0.699,2.023-1.398,4.046-2.098,6.068c-0.409,1.184,1.017,2.084,2.004,1.541
				c13.38-7.36,26.761-14.721,40.141-22.081c14.54,6.954,30.866,10.36,47.217,9.603c1.752-0.081,1.76-2.81,0-2.729
				c-15.413,0.713-30.604-2.286-44.253-8.505c10.847-5.967,21.695-11.934,32.542-17.901c4.011-2.207,8.023-4.413,12.034-6.62
				c1.791,2.992,4.15,5.703,7.006,7.938c7.463,5.842,14.925,11.683,22.388,17.525c5.88,4.603,9.941,10.198,10.785,17.815
				c1.007,9.097-3.83,17.8-11.44,22.563c-9.908,6.201-22.839,3.513-30.456-4.929c-1.181-1.309-3.105,0.627-1.93,1.929
				c11.123,12.328,30.644,11.882,41.048-1.093c9.552-11.913,6.092-28.688-5.448-37.721c-7.463-5.842-14.925-11.683-22.388-17.525
				c-2.935-2.298-5.417-4.843-7.272-7.763c21.294-11.713,42.587-23.426,63.881-35.139c3.643,3.865,6.073,8.429,6.704,14.123
				c1.007,9.097-3.83,17.8-11.44,22.563c-9.908,6.201-22.839,3.513-30.456-4.929c-1.181-1.309-3.105,0.627-1.93,1.929
				c11.123,12.328,30.644,11.882,41.048-1.093c8.344-10.406,6.758-24.52-1.467-33.946c11.158-6.138,22.316-12.276,33.475-18.414
				c6.281-3.455,12.562-6.91,18.843-10.365c1.542-0.848,0.165-3.205-1.377-2.356c-17.633,9.7-35.266,19.399-52.899,29.099
				c-0.643-0.606-1.317-1.188-2.021-1.739c-7.463-5.842-14.925-11.683-22.388-17.525c-5.88-4.603-9.941-10.198-10.785-17.815
				c-1.007-9.097,3.83-17.8,11.44-22.563c9.908-6.201,22.839-3.513,30.456,4.929c0.141,0.156,0.292,0.263,0.447,0.333
				c0.05,8.023,0.099,16.047,0.149,24.07c0.011,1.759,2.74,1.76,2.729,0c-0.172-27.844-0.344-55.687-0.517-83.531
				c23.319,25.845,46.638,51.69,69.956,77.536c2.093,2.32,4.186,4.64,6.28,6.96c0.813,0.901,2.331,0.181,2.329-0.965
				C276.256,78.58,276.214,49.529,276.172,20.478z M36.327,165.895c-17.092-29.073-14.477-65.961,5.171-93.052
				C54.764,54.551,74.659,42.59,96.316,37.958c-7.907,22.875-15.814,45.751-23.721,68.626c-8.514,24.63-17.027,49.259-25.54,73.889
				C43.042,176.042,39.434,171.179,36.327,165.895z M51.332,213.241c-5.237,2.881-10.474,5.761-15.71,8.642
				c4.169-12.062,8.339-24.125,12.508-36.187c6.735,6.704,14.486,12.319,22.909,16.705C64.47,206.014,57.901,209.628,51.332,213.241
				z"/>
			<path d="M101.97,76.79c-9.159,26.312-18.317,52.623-27.476,78.935c-0.256,0.735,0.287,1.448,0.953,1.678
				c10.388,3.589,20.776,7.178,31.164,10.767c1.668,0.576,2.378-2.06,0.725-2.631c-9.931-3.431-19.861-6.862-29.792-10.293
				c4.27-12.267,8.54-24.534,12.81-36.802c0.013,0.005,0.023,0.012,0.036,0.017c5.268,1.834,10.536,3.667,15.804,5.501
				c1.666,0.58,2.376-2.057,0.725-2.631c-5.224-1.818-10.448-3.637-15.672-5.455c4.292-12.33,8.584-24.66,12.876-36.99
				c9.986,3.476,19.973,6.952,29.959,10.428c1.666,0.58,2.376-2.057,0.725-2.631c-10.387-3.616-20.774-7.231-31.16-10.847
				C102.912,75.58,102.201,76.124,101.97,76.79z"/>
		</g>
	</g>
</g>
</svg>
